<?xml version="1.0" encoding="iso-8859-1"?>
<!-- Generator: Adobe Illustrator 19.0.0, SVG Export Plug-In . SVG Version: 6.00 Build 0)  -->
<svg version="1.1" id="Layer_1" xmlns="http://www.w3.org/2000/svg" xmlns:xlink="http://www.w3.org/1999/xlink" x="0px" y="0px"
	 viewBox="0 0 512 512" style="enable-background:new 0 0 512 512;" xml:space="preserve">
<path style="fill:#93A1B9;" d="M461.913,445.217H50.087c-9.217,0-16.696-7.473-16.696-16.696V155.826
	c0-27.619,22.468-50.087,50.087-50.087h345.043c27.619,0,50.087,22.468,50.087,50.087v272.696
	C478.609,437.744,471.13,445.217,461.913,445.217z"/>
<path style="fill:#8291A6;" d="M428.522,105.739H256v339.478h205.913c9.217,0,16.696-7.473,16.696-16.696V155.826
	C478.609,128.207,456.141,105.739,428.522,105.739z"/>
<path style="fill:#73E6E6;" d="M66.783,411.826h378.435v-256c0-9.206-7.49-16.696-16.696-16.696H83.478
	c-9.206,0-16.696,7.49-16.696,16.696V411.826z"/>
<path style="fill:#57D9D9;" d="M428.522,139.13H256v272.696h189.217v-256C445.217,146.62,437.728,139.13,428.522,139.13z"/>
<path style="fill:#6B7A99;" d="M461.913,495.304H50.087C22.468,495.304,0,472.836,0,445.217v-16.696
	c0-9.223,7.479-16.696,16.696-16.696h478.609c9.217,0,16.696,7.473,16.696,16.696v16.696
	C512,472.836,489.532,495.304,461.913,495.304z"/>
<path style="fill:#5A6680;" d="M495.304,411.826H256v83.478h205.913c27.619,0,50.087-22.468,50.087-50.087v-16.696
	C512,419.299,504.521,411.826,495.304,411.826z"/>
<path style="fill:#FFEACC;" d="M361.739,361.739H150.261c-27.619,0-50.087-22.468-50.087-50.087V66.783
	c0-27.619,22.468-50.087,50.087-50.087h211.478c27.619,0,50.087,22.468,50.087,50.087v244.87
	C411.826,339.271,389.358,361.739,361.739,361.739z"/>
<path style="fill:#FFD9B3;" d="M361.739,16.696H256v345.043h105.739c27.619,0,50.087-22.468,50.087-50.087V66.783
	C411.826,39.164,389.358,16.696,361.739,16.696z"/>
<path style="fill:#F37B2A;" d="M256,172.522c-4.457,0-8.652-1.74-11.804-4.896c-3.153-3.152-4.892-7.343-4.892-11.799
	s1.739-8.647,4.892-11.804c6.304-6.304,17.304-6.31,23.609,0.006c3.151,3.151,4.891,7.342,4.891,11.798
	c0,9.223,7.479,16.696,16.696,16.696c9.217,0,16.696-7.473,16.696-16.696c0-13.385-5.218-25.962-14.674-35.413
	c-5.357-5.36-11.778-9.18-18.717-11.637v-8.603c0-9.223-7.479-16.696-16.696-16.696c-9.217,0-16.696,7.473-16.696,16.696v8.602
	c-6.939,2.458-13.36,6.275-18.717,11.632c-9.458,9.456-14.674,22.033-14.674,35.418s5.217,25.962,14.674,35.413
	c9.456,9.462,22.033,14.674,35.413,14.674c4.457,0,8.652,1.74,11.804,4.896c3.152,3.152,4.892,7.343,4.892,11.799
	s-1.74,8.647-4.892,11.804c-6.304,6.304-17.304,6.31-23.609-0.006c-3.152-3.151-4.891-7.342-4.891-11.798
	c0-9.223-7.479-16.696-16.696-16.696s-16.696,7.473-16.696,16.696c0,13.385,5.217,25.962,14.674,35.413
	c5.357,5.36,11.778,9.18,18.717,11.637v8.603c0,9.223,7.479,16.696,16.696,16.696s16.696-7.473,16.696-16.696v-8.602
	c6.939-2.458,13.36-6.275,18.717-11.632c9.457-9.456,14.674-22.033,14.674-35.418c0-13.385-5.218-25.962-14.674-35.413
	C281.956,177.734,269.38,172.522,256,172.522z"/>
<g>
	<path style="fill:#E56722;" d="M267.804,144.027c3.152,3.152,4.892,7.343,4.892,11.799c0,9.223,7.479,16.696,16.696,16.696
		c9.217,0,16.696-7.473,16.696-16.696c0-13.385-5.218-25.962-14.674-35.413c-5.357-5.36-11.778-9.18-18.717-11.637v-8.603
		c0-9.223-7.479-16.696-16.696-16.696v55.814C260.326,139.292,264.652,140.87,267.804,144.027z"/>
	<path style="fill:#E56722;" d="M272.696,278.261v-8.602c6.939-2.458,13.36-6.275,18.717-11.632
		c9.457-9.456,14.674-22.033,14.674-35.418c0-13.385-5.218-25.962-14.674-35.413c-9.456-9.462-22.033-14.674-35.413-14.674v33.391
		c4.457,0,8.652,1.74,11.804,4.896c3.152,3.152,4.892,7.343,4.892,11.799s-1.74,8.647-4.892,11.804
		c-3.152,3.152-7.479,4.729-11.804,4.729v55.815C265.217,294.957,272.696,287.484,272.696,278.261z"/>
</g>
<g>
</g>
<g>
</g>
<g>
</g>
<g>
</g>
<g>
</g>
<g>
</g>
<g>
</g>
<g>
</g>
<g>
</g>
<g>
</g>
<g>
</g>
<g>
</g>
<g>
</g>
<g>
</g>
<g>
</g>
</svg>
